
nColumns=19
nRows=74
DataType=double
version=3
OpenSimVersion=4.4-2022-10-11-798caa840
endheader
time	ground_force_calcn_r_vx	ground_force_calcn_r_vy	ground_force_calcn_r_vz	ground_force_calcn_r_px	ground_force_calcn_r_py	ground_force_calcn_r_pz	ground_force_calcn_r_mx	ground_force_calcn_r_my	ground_force_calcn_r_mz	ground_force_calcn_l_vx	ground_force_calcn_l_vy	ground_force_calcn_l_vz	ground_force_calcn_l_px	ground_force_calcn_l_py	ground_force_calcn_l_pz	ground_force_calcn_l_mx	ground_force_calcn_l_my	ground_force_calcn_l_mz
3.37	7.03932	583.0359999999999	-47.4923	-0.225113	0	-0.446806	-0.00938774	-0.777545	0.0633365	0	0	0	0	0	0	0	0	0
3.38	6.36883	590.7	-47.4232	-0.223756	0	-0.446366	-0.00684218	-0.634603	0.0509478	0	0	0	0	0	0	0	0	0
3.39	5.69307	598.716	-47.0356	-0.222608	0	-0.446134	-0.00450013	-0.473259	0.0371796	0	0	0	0	0	0	0	0	0
3.4	5.02109	607.112	-46.367	-0.221673	0	-0.446105	-0.0024413	-0.295184	0.0225441	0	0	0	0	0	0	0	0	0
3.41	4.36346	615.8200000000001	-45.4732	-0.220936	0	-0.44626	-0.000723717	-0.102139	0.00754212	0	0	0	0	0	0	0	0	0
3.42	3.72903	624.689	-44.4188	-0.220371	0	-0.446573	0.000619557	0.103789	-0.00737994	0	0	0	0	0	0	0	0	0
3.43	3.12871	633.508	-43.2644	-0.219939	0	-0.447009	0.00157923	0.319765	-0.0218378	0	0	0	0	0	0	0	0	0
3.44	2.57738	642.028	-42.0601	-0.2196	0	-0.447534	0.00217693	0.542274	-0.035525	0	0	0	0	0	0	0	0	0
3.45	2.0923	650.001	-40.844	-0.219309	0	-0.448116	0.00247049	0.767493	-0.0482268	0	0	0	0	0	0	0	0	0
3.46	1.68786	657.225	-39.641	-0.219028	0	-0.448729	0.00254598	0.991362	-0.0597948	0	0	0	0	0	0	0	0	0
3.47	1.37152	663.588	-38.4609	-0.218728	0	-0.44935	0.00249961	1.2094	-0.0700957	-1.68455	20.6192	-4.35516	-0.0453466	0	-0.750225	-0.046823	0.573122	-0.121054
3.48	1.14294	669.091	-37.2987	-0.218385	0	-0.449969	0.00242059	1.41704	-0.0789932	-2.00654	22.6947	-4.43645	-0.0534335	0	-0.755585	-0.0480551	0.54352	-0.10625
3.49	0.994305	673.827	-36.1395	-0.21799	0	-0.450577	0.00237594	1.61014	-0.086357	-2.33376	24.9671	-4.55137	-0.0602548	0	-0.760307	-0.0488409	0.5225109999999999	-0.09525110000000001
3.5	0.913187	677.942	-34.9658	-0.217533	0	-0.45117	0.00240525	1.78564	-0.0920967	-2.65861	27.4346	-4.69652	-0.06598270000000001	0	-0.764418	-0.049317	0.50891	-0.08712
3.51	0.8859320000000001	681.586	-33.7621	-0.217015	0	-0.451744	0.00252425	1.94202	-0.09619709999999999	-2.97618	30.0977	-4.86735	-0.070772	0	-0.767964	-0.0495853	0.501448	-0.0810935
3.52	0.902146	684.87	-32.517	-0.216433	0	-0.452294	0.00273931	2.07957	-0.09873609999999999	-3.28514	32.9573	-5.05854	-0.0747598	0	-0.771007	-0.0497369	0.498972	-0.07658619999999999
3.53	0.956294	687.8339999999999	-31.2261	-0.215785	0	-0.452816	0.00305909	2.20032	-0.0998894	-3.58721	36.0128	-5.26427	-0.0780554	0	-0.773611	-0.0498547	0.500502	-0.0731623
3.54	1.0497	690.458	-29.8921	-0.215069	0	-0.4533	0.00350827	2.30763	-0.09990449999999999	-3.88536	39.2585	-5.47877	-0.0807553	0	-0.7758389999999999	-0.0500162	0.505374	-0.0705282
3.55	1.19333	692.705	-28.5214	-0.214285	0	-0.453738	0.00414389	2.40545	-0.0990419	-4.18232	42.6831	-5.69662	-0.0829491	0	-0.7777539999999999	-0.0502831	0.51317	-0.0684892
3.56	1.40785	694.579	-27.1198	-0.21344	0	-0.454127	0.00506259	2.49769	-0.09752230000000001	-4.48027	46.2682	-5.9126	-0.08472010000000001	0	-0.77941	-0.0507137	0.523726	-0.06692679999999999
3.57	1.72285	696.164	-25.689	-0.21255	0	-0.454467	0.00640406	2.58774	-0.09548959999999999	-4.78216	49.9853	-6.12167	-0.0861421	0	-0.780851	-0.051366	0.5369	-0.0657539
3.58	2.17357	697.626	-24.226	-0.211636	0	-0.454764	0.008344519999999999	2.67824	-0.0930055	-5.0935	53.7962	-6.319	-0.08727849999999999	0	-0.782111	-0.0522937	0.552312	-0.06487569999999999
3.59	2.79614	699.1950000000001	-22.7249	-0.21073	0	-0.455027	0.0110815	2.771	-0.09006160000000001	-5.42185	57.6585	-6.50038	-0.088188	0	-0.783218	-0.0535455	0.569428	-0.064197
3.6	3.62005	701.12	-21.1809	-0.209861	0	-0.455264	0.0148024	2.86688	-0.0866087	-5.77684	61.5355	-6.66228	-0.08891930000000001	0	-0.784196	-0.0551707	0.587684	-0.0636269
3.61	4.65628	703.62	-19.5964	-0.209049	0	-0.455482	0.0196263	2.96577	-0.0825993	-6.17126	65.40560000000001	-6.80111	-0.089517	0	-0.785071	-0.0572358	0.606609	-0.06307740000000001
3.62	5.89381	706.842	-17.983	-0.208309	0	-0.455684	0.0255724	3.06689	-0.07802580000000001	-6.62057	69.26600000000001	-6.91293	-0.090015	0	-0.785873	-0.0598356	0.626015	-0.062478
3.63	7.30319	710.831	-16.3648	-0.207641	0	-0.455868	0.0325612	3.16924	-0.0729625	-7.14013	73.1298	-6.99353	-0.09044199999999999	0	-0.786625	-0.0630698	0.645965	-0.0617748
3.64	8.84639	715.551	-14.7766	-0.207032	0	-0.456029	0.0404513	3.27195	-0.0675679	-7.74241	77.0193	-7.03838	-0.09081939999999999	0	-0.787351	-0.06701029999999999	0.6666	-0.0609169
3.65	10.4871	720.9109999999999	-13.2554	-0.206465	0	-0.456155	0.0490848	3.37423	-0.0620421	-8.43491	80.9593	-7.04263	-0.09116390000000001	0	-0.788063	-0.0716985	0.688171	-0.0598639
3.66	12.1938	726.797	-11.8326	-0.205921	0	-0.456243	0.058304	3.47515	-0.056577	-9.219519999999999	84.9693	-7.00128	-0.091487	0	-0.788768	-0.07714790000000001	0.711014	-0.0585859
3.67	13.9398	733.097	-10.5302	-0.20538	0	-0.456281	0.0679491	3.57345	-0.0513291	-10.0935	89.0556	-6.90932	-0.09179379999999999	0	-0.7894679999999999	-0.0833494	0.7354000000000001	-0.0570555
3.68	15.6997	739.7089999999999	-9.36375	-0.204825	0	-0.456269	0.07784190000000001	3.66761	-0.0464271	-11.0517	93.20699999999999	-6.76218	-0.0920864	0	-0.790164	-0.0902734	0.761342	-0.0552355
3.69	17.4443	746.547	-8.343959999999999	-0.204238	0	-0.456202	0.0877684	3.75615	-0.0419815	-12.0894	97.396	-6.55568	-0.09236279999999999	0	-0.790847	-0.0978671	0.78845	-0.0530702
3.7	19.132	753.533	-7.48125	-0.203607	0	-0.456081	0.0974447	3.83796	-0.0381042	-13.2044	101.585	-6.2863	-0.09262239999999999	0	-0.79151	-0.106074	0.816059	-0.0504995
3.71	20.7024	760.585	-6.78714	-0.202915	0	-0.455907	0.106488	3.91225	-0.0349113	-14.3978	105.732	-5.95171	-0.09285839999999999	0	-0.792146	-0.114839	0.843336	-0.0474716
3.72	22.0808	767.6130000000001	-6.27222	-0.202147	0	-0.455681	0.114444	3.97851	-0.0325087	-15.6708	109.796	-5.55177	-0.0930667	0	-0.792749	-0.124085	0.869391	-0.0439601
3.73	23.1851	774.51	-5.946	-0.201289	0	-0.455406	0.120841	4.03678	-0.0309908	-17.0214	113.735	-5.08944	-0.0932429	0	-0.793311	-0.133708	0.893419	-0.039979
3.74	23.9382	781.148	-5.81532	-0.200332	0	-0.455085	0.125275	4.08796	-0.0304331	-18.4425	117.509	-4.57096	-0.09338589999999999	0	-0.793833	-0.143583	0.9148579999999999	-0.0355869
3.75	24.2846	787.394	-5.88163	-0.199272	0	-0.454723	0.127506	4.13421	-0.0308815	-19.922	121.082	-4.00533	-0.0934902	0	-0.79431	-0.153564	0.933331	-0.0308741
3.76	24.2041	793.122	-6.13725	-0.198112	0	-0.454326	0.127531	4.17894	-0.032337	-21.4426	124.419	-3.40344	-0.09355869999999999	0	-0.7947419999999999	-0.163495	0.948667	-0.0259504
3.77	23.715	798.23	-6.56316	-0.196869	0	-0.453902	0.125563	4.22636	-0.0347497	-22.9805	127.487	-2.77798	-0.0935925	0	-0.795127	-0.173243	0.961084	-0.0209423
3.78	22.8643	802.646	-7.13092	-0.195562	0	-0.453461	0.121946	4.28089	-0.0380326	-24.5073	130.251	-2.14331	-0.0935957	0	-0.795466	-0.182706	0.971042	-0.0159787
3.79	21.7181	806.319	-7.80729	-0.194218	0	-0.453016	0.117085	4.34697	-0.0420901	-25.9946	132.68	-1.51478	-0.0935766	0	-0.795759	-0.191809	0.97902	-0.0111773
3.8	20.3494	809.213	-8.56091	-0.192865	0	-0.452577	0.11138	4.42913	-0.0468571	-27.4181	134.752	-0.907737	-0.0935412	0	-0.796005	-0.200514	0.985466	-0.00663845
3.81	18.8296	811.3049999999999	-9.36598	-0.191529	0	-0.452157	0.105175	4.53165	-0.0523149	-28.7595	136.453	-0.336555	-0.0934968	0	-0.796204	-0.208825	0.990797	-0.00244376
3.82	17.2234	812.582	-10.2019	-0.190237	0	-0.451762	0.09873460000000001	4.6582	-0.0584835	-30.0052	137.78	0.186074	-0.0934494	0	-0.796355	-0.216778	0.995417	0.00134432
3.83	15.5897	813.035	-11.0556	-0.189007	0	-0.451404	0.0922626	4.81169	-0.0654288	-31.1449	138.741	0.649483	-0.09340610000000001	0	-0.796455	-0.224392	0.999601	0.00467939
3.84	13.9848	812.667	-11.9234	-0.187862	0	-0.451085	0.0859456	4.99436	-0.0732768	-32.1687	139.348	1.04549	-0.0933712	0	-0.796509	-0.231649	1.00346	0.00752866
3.85	12.4632	811.4930000000001	-12.811	-0.186818	0	-0.450811	0.0799864	5.20802	-0.0822186	-33.068	139.622	1.36973	-0.0933479	0	-0.796515	-0.238497	1.007	0.009878919999999999
3.86	11.0771	809.5410000000001	-13.7287	-0.185891	0	-0.450583	0.0746257	5.45384	-0.09248969999999999	-33.8358	139.585	1.62338	-0.09333900000000001	0	-0.796473	-0.244852	1.0101	0.0117476
3.87	9.87581	806.865	-14.6845	-0.185096	0	-0.450403	0.070159	5.73207	-0.104321	-34.4689	139.261	1.81421	-0.0933418	0	-0.79639	-0.250603	1.01248	0.0131901
3.88	8.90607	803.547	-15.6775	-0.184448	0	-0.450271	0.0669609	6.04152	-0.117873	-34.9688	138.676	1.95686	-0.0933524	0	-0.796269	-0.2556	1.01364	0.0143034
3.89	8.2142	799.6950000000001	-16.6938	-0.183963	0	-0.450191	0.0655255	6.37925	-0.133169	-35.3431	137.856	2.07221	-0.0933654	0	-0.796118	-0.259658	1.0128	0.015224
3.9	7.84515	795.433	-17.7065	-0.183654	0	-0.450166	0.0664817	6.74069	-0.150049	-35.6064	136.829	2.18593	-0.09337760000000001	0	-0.795945	-0.26259	1.00909	0.0161208
3.91	7.83351	790.8869999999999	-18.6811	-0.183532	0	-0.450197	0.0705192	7.11976	-0.168172	-35.7806	135.623	2.32601	-0.0933809	0	-0.7957610000000001	-0.264247	1.00161	0.0171781
3.92	8.19286	786.176	-19.5822	-0.183603	0	-0.450285	0.0782544	7.50919	-0.18704	-35.8908	134.272	2.51985	-0.0933717	0	-0.795578	-0.264536	0.989662	0.0185727
3.93	8.909940000000001	781.4059999999999	-20.3765	-0.183868	0	-0.450431	0.09008770000000001	7.90074	-0.206025	-35.9624	132.814	2.79147	-0.0933515	0	-0.795405	-0.263446	0.9729449999999999	0.0204492
3.94	9.94631	776.672	-21.0388	-0.184319	0	-0.450634	0.106113	8.28599	-0.224454	-36.0198	131.299	3.15897	-0.0933195	0	-0.795255	-0.261075	0.951665	0.0228965
3.95	11.2499	772.044	-21.5571	-0.184945	0	-0.450889	0.126153	8.657489999999999	-0.241735	-36.085	129.781	3.63257	-0.0932756	0	-0.795138	-0.257606	0.926488	0.0259324
3.96	12.7684	767.578	-21.9344	-0.185736	0	-0.451192	0.149874	9.0097	-0.257463	-36.1762	128.329	4.21356	-0.0932216	0	-0.795063	-0.253296	0.898523	0.0295022
3.97	14.4583	763.313	-22.1823	-0.186674	0	-0.451537	0.176895	9.33901	-0.271397	-36.3068	127.018	4.89468	-0.0931638	0	-0.7950390000000001	-0.248485	0.869319	0.0334994
3.98	16.2884	759.285	-22.3111	-0.187751	0	-0.451919	0.206864	9.642989999999999	-0.283354	-36.486	125.935	5.66235	-0.09310889999999999	0	-0.795072	-0.243585	0.840758	0.0378025
3.99	18.2399	755.5309999999999	-22.3253	-0.188953	0	-0.452333	0.239483	9.91986	-0.293123	-36.7194	125.168	6.49946	-0.0930679	0	-0.795169	-0.239039	0.814827	0.0423107
4	20.304	752.091	-22.2213	-0.190274	0	-0.452778	0.274505	10.1681	-0.300427	-37.0092	124.8	7.38818	-0.0930561	0	-0.795337	-0.235253	0.793304	0.0469638
4.01	22.4762	748.9930000000001	-21.9926	-0.191704	0	-0.453251	0.311676	10.3863	-0.304971	-37.3526	124.9	8.31194	-0.0930839	0	-0.7955759999999999	-0.232524	0.777519	0.0517428
4.02	24.7441	746.2430000000001	-21.6367	-0.193225	0	-0.453747	0.350596	10.5735	-0.306568	-37.7425	125.516	9.256970000000001	-0.0931652	0	-0.795885	-0.230995	0.768194	0.0566554
4.03	27.0774	743.824	-21.1606	-0.194821	0	-0.454261	0.390576	10.7292	-0.305229	-38.1685	126.667	10.2134	-0.0933052	0	-0.7962590000000001	-0.230629	0.7653720000000001	0.0617132
4.04	29.4282	741.688	-20.5823	-0.196465	0	-0.454786	0.430653	10.8539	-0.301202	-38.6181	128.348	11.1757	-0.09350410000000001	0	-0.796686	-0.231236	0.768521	0.0669178
4.05	31.7413	739.776	-19.9283	-0.198133	0	-0.455311	0.469776	10.9488	-0.294942	-39.0771	130.527	12.1425	-0.0937562	0	-0.7971549999999999	-0.232514	0.776653	0.0722493
4.06	33.9674	738.022	-19.2309	-0.199802	0	-0.45583	0.507019	11.0162	-0.287053	-39.5308	133.148	13.1143	-0.09405479999999999	0	-0.797652	-0.234066	0.788384	0.07765130000000001
4.07	36.0661	736.355	-18.5243	-0.201449	0	-0.456331	0.54166	11.059	-0.278207	-39.9666	136.139	14.0924	-0.0943903	0	-0.798166	-0.23545	0.802015	0.08302030000000001
4.08	38.0003	734.698	-17.8392	-0.203058	0	-0.456808	0.573112	11.0805	-0.269046	-40.3752	139.415	15.0765	-0.094753	0	-0.798689	-0.236225	0.81568	0.0882088
4.09	39.7336	732.9690000000001	-17.1976	-0.204613	0	-0.457254	0.600842	11.0838	-0.260058	-40.7497	142.885	16.0642	-0.0951328	0	-0.799216	-0.235985	0.827457	0.09302879999999999
4.1	41.232	731.09	-16.6122	-0.206104	0	-0.457666	0.624376	11.0709	-0.251558	-41.0827	146.454	17.0494	-0.09551999999999999	0	-0.799737	-0.23439	0.835566	0.097272
